<?xml version="1.0" standalone="no"?>
<!DOCTYPE svg PUBLIC "-//W3C//DTD SVG 20010904//EN"
 "http://www.w3.org/TR/2001/REC-SVG-20010904/DTD/svg10.dtd">
<svg version="1.0" xmlns="http://www.w3.org/2000/svg"
 width="700.000000pt" height="700.000000pt" viewBox="0 0 700.000000 700.000000"
 preserveAspectRatio="xMidYMid meet">
<metadata>
Created by potrace 1.14, written by Peter Selinger 2001-2017
</metadata>
<g transform="translate(0.000000,700.000000) scale(0.100000,-0.100000)"
fill="#000000" stroke="none">
<path d="M3470 6230 c-14 -4 -35 -10 -47 -15 -52 -18 -528 -620 -816 -1035
-45 -64 -247 -370 -273 -413 -16 -27 -41 -67 -56 -90 -15 -23 -33 -53 -41 -67
-7 -14 -47 -83 -89 -155 -148 -256 -289 -546 -379 -778 -28 -73 -55 -141 -60
-152 -47 -116 -120 -392 -154 -590 -27 -156 -27 -518 0 -666 3 -13 7 -40 9
-59 5 -39 6 -45 36 -172 96 -409 316 -755 635 -997 78 -60 274 -181 292 -181
3 0 30 -11 60 -25 130 -62 413 -139 583 -159 190 -23 512 -24 640 -1 14 2 45
6 70 9 39 5 97 15 165 30 76 16 242 67 305 93 162 68 377 189 430 243 3 3 26
22 52 43 280 225 503 611 584 1012 14 69 24 125 28 155 27 182 28 489 2 660
-2 14 -7 45 -10 70 -34 220 -154 587 -298 910 -47 106 -211 425 -277 539 -39
68 -71 126 -71 129 0 3 -11 20 -25 38 -14 18 -25 35 -25 38 0 18 -401 625
-463 701 -4 6 -42 57 -84 114 -41 58 -80 109 -84 115 -5 6 -53 67 -106 136
-107 139 -240 306 -287 360 -17 20 -47 55 -66 78 -58 70 -119 98 -180 82z
m1320 -3577 c58 -33 75 -76 74 -178 -5 -370 -218 -735 -548 -938 -177 -109
-378 -167 -566 -164 -88 2 -98 4 -132 30 -71 54 -83 160 -27 231 31 39 70 55
151 61 156 12 254 39 367 101 248 136 405 380 426 662 8 104 13 122 40 158 49
64 142 80 215 37z"/>
</g>
</svg>
